<?xml version="1.0" encoding="UTF-8"?>
<svg width="910px" height="460px" viewBox="0 0 910 460" version="1.1" xmlns="http://www.w3.org/2000/svg" xmlns:xlink="http://www.w3.org/1999/xlink">
    <!-- Generator: Sketch 53.1 (72631) - https://sketchapp.com -->
    <title>Artboard</title>
    <desc>Created with Sketch.</desc>
    <defs>
        <path d="M564.099466,283.287139 C548.949985,328.964138 521.33692,399.203856 493.935916,395.895777 C475.601522,393.682974 465.711236,359.55695 464.10537,353.611037 C443.565761,277.545135 508.477892,180.234514 530.11043,104.788945 C532.181535,97.5642008 536.102532,82.7080941 529.393562,69.0010633 C524.742563,59.4996776 516.980068,54.6258199 501.683894,45.2916608 C497.363309,42.6549774 493.439539,40.4995769 489.849516,38.6358858 C494.740231,49.351689 499.768611,63.0819034 502.979372,79.4350322 L502.980063,79.4357261 C502.980063,79.4357261 506.464856,95.1772317 504.538922,112.927538 C498.060152,172.642009 468.052636,239.69988 468.052636,239.69988 C413.800197,360.938477 400.143071,362.698173 394.872676,362.194412 C380.538087,360.821904 371.335635,337.2603 369.821018,333.291964 C361.513786,311.526831 367.585386,290.971835 372.004112,276.010258 C379.81638,249.557229 393.671906,209.238963 418.469169,158.941223 C388.820433,204.665558 366.760677,242.713428 351.734107,269.749322 C335.628432,298.726015 321.803324,325.48713 309.011002,323.275714 C298.170884,321.401527 293.727272,299.699538 293.107185,296.669336 C292.640954,294.392357 292.308574,292.201857 292.107877,290.058666 C262.823352,368.377794 154.547139,459.041974 78.3862896,453.145564 C69.3767071,452.448208 47.8202111,450.779412 31.2444595,434.596594 C30.3430174,433.716747 10.0813075,413.317182 12.9646781,385.774751 C14.5477322,370.652886 22.7471229,356.82165 26.478015,357.602966 C30.7923559,358.507793 24.6198275,378.012245 33.7545335,390.574363 C46.1044293,407.558619 79.788917,402.713211 95.8468924,400.218689 C95.8468924,400.218689 116.355043,397.033873 147.428961,381.253808 C143.018156,373.872005 139.979904,363.693389 139.158285,360.941947 C134.182796,344.272102 133.368093,327.574198 140.626158,299.554145 C134.893306,298.982067 130.165427,297.225156 126.737877,294.110977 C120.971136,288.872135 112.593393,274.073621 116.705186,268.705717 C119.104653,265.575595 125.035921,266.590057 128.139813,266.932837 C135.889145,267.786587 143.231344,266.044886 152.650858,261.980692 C152.818291,261.522038 152.987097,261.061141 153.157282,260.597983 C152.589229,255.884228 151.076954,252.691775 149.806916,250.642467 C135.929269,228.257694 77.476552,223.867475 38.3281081,242.047297 C33.6439271,244.222631 27.1077802,247.424916 20.2411966,245.334237 C6.47968664,241.144551 -3.13753981,217.825113 2.7778287,201.511845 C2.7778287,201.511845 4.14865676,197.730164 6.35041541,194.809596 C19.9001419,176.831395 140.251862,100.767552 226.647482,76.4403339 C233.309523,56.348345 238.078061,38.4726371 238.034184,28.568306 C238.027271,27.0944914 237.880027,19.0939818 239.781074,18.7095688 C242.686566,18.1211532 248.486489,35.711172 249.967924,40.2033922 C252.692742,48.4664857 253.33725,58.7471545 252.404478,70.6427227 C277.488049,66.6618494 297.514365,69.2518078 307.763224,82.0953925 C311.317146,86.548755 317.901683,97.5066082 321.952642,111.362131 C321.952642,111.362825 328.822682,134.862673 323.378082,162.619515 C319.350402,183.151964 302.645328,206.077359 280.419611,227.217461 C284.979725,227.034094 289.000147,227.940538 292.171178,230.308822 C293.953264,231.640469 299.987856,236.80919 299.634023,254.275149 C304.184429,243.257187 310.683735,229.651639 318.990465,210.902209 C347.642361,146.22992 361.967964,113.893428 362.856272,95.920384 C362.948904,94.0468909 363.159748,87.0115772 365.767294,86.3211603 C369.152541,85.4253531 374.788628,95.6941771 377.409309,101.554741 C384.183259,116.704362 383.529299,130.858949 383.230662,135.152024 C382.26009,149.08318 378.15521,157.872639 370.548947,175.427269 C363.623603,191.408166 357.437941,207.70825 350.382635,223.631554 C343.672974,238.774235 334.183636,260.90921 323.355961,288.843686 C396.941707,170.069773 445.267717,89.6067122 455.266536,67.2267959 C456.476293,64.5206392 460.260415,55.6465267 464.466223,55.9587755 C470.56824,56.4111894 475.308415,76.0294381 474.912998,92.8943457 C474.628877,105.049847 471.716473,114.094655 471.171045,115.744717 C455.990316,161.690401 394.733727,307.020733 399.446251,309.815707 C403.475089,312.205452 458.458913,231.712554 484.89246,146.420738 C490.174607,129.374726 496.204038,106.049043 491.44105,77.4005575 C488.222087,58.0389715 481.085112,42.3273667 474.267088,30.8056001 C467.62965,27.2464486 462.425117,23.516444 457.657708,16.6223587 C454.908448,12.6463899 450.065961,4.38150967 452.044433,2.43238293 C453.538311,0.960649989 458.351763,3.64737792 459.944495,4.51889916 C486.465836,19.0315321 507.607558,15.985371 529.535968,36.2572606 C551.763015,56.8053169 556.720256,84.5989344 559.112119,98.0069003 C563.547436,122.875093 559.418361,142.371218 554.95401,162.489064 C548.23398,192.769571 539.670971,207.44041 526.264093,239.073994 C522.866402,247.090463 485.169667,336.03906 492.377057,339.865843 C500.976013,344.430921 568.825435,225.339208 569.515343,186.189446 C569.551981,184.114032 569.553363,173.548919 571.273984,173.340059 C573.288403,173.095117 576.92528,187.135213 578.477226,196.93497 C579.229406,201.684535 579.626576,206.287903 579.761536,210.679768 C590.395025,181.711041 603.256801,157.455439 607.448499,149.55086 C612.067698,140.83981 646.857559,75.230081 665.971036,80.895663 C674.490494,83.4207154 681.338413,100.531953 681.823698,113.866367 C682.026246,119.431335 681.097844,123.696654 679.796145,129.674485 C676.688105,143.953972 670.541154,157.434796 668.570286,156.906749 C667.475974,156.613235 668.033845,147.838348 669.19383,130.300371 C669.941114,119.002513 670.245282,116.691178 669.19383,116.214478 C665.545893,114.559559 650.961056,137.427971 640.192141,157.689453 C612.259186,210.241629 601.288413,261.621831 604.849248,262.863194 C610.16596,264.71587 655.200046,157.396632 669.544314,159.480373 C670.43193,159.609436 671.102482,159.951522 671.102482,159.952216 C678.171613,163.5632 671.723951,184.263218 672.208546,199.842354 C672.547122,210.747329 676.246025,217.98037 682.033404,226.804195 C684.774818,219.196633 687.321003,211.234096 689.671222,202.763616 C694.965121,183.693537 699.527635,161.103373 701.629157,161.445459 C704.000281,161.831954 701.076125,191.186816 700.689002,195.042742 C699.634532,205.625753 696.992862,220.068858 690.429188,239.294504 C691.917716,241.552667 693.470112,243.968479 695.075727,246.586008 C695.764546,247.709059 696.472293,248.862939 697.194807,250.045411 C698.495078,240.818908 700.872102,229.795756 704.746874,216.536566 C724.310381,149.56335 766.250946,79.7299339 781.770406,85.3823321 C782.102225,85.5016806 782.489348,85.6827849 783.070031,86.0963412 C805.52313,102.060584 785.64163,234.22581 752.922874,237.275441 C743.68724,238.136554 731.043546,228.941172 726.888893,218.727859 C724.980933,214.039963 723.950911,206.90126 726.5709,205.267851 C729.004241,203.755873 732.633513,208.160664 736.000095,208.694262 C752.846833,211.365031 784.673824,120.498532 779.274849,118.248953 C775.763096,116.785546 756.317108,151.714397 744.986865,184.460975 C733.967703,216.308277 721.075144,274.906979 734.05757,280.705093 C752.819181,289.085852 819.583969,184.464445 829.379548,117.414207 C835.193297,77.6045601 824.692602,45.8752192 824.692602,45.8752192 C824.25649,44.5593595 823.811395,43.2836036 823.361481,42.0496024 C802.009325,34.6864407 777.095485,32.5718909 771.636095,17.4571039 C771.442533,16.9290564 767.889303,7.08350309 771.166017,4.623676 C773.15002,3.13390202 776.82077,4.9692314 777.906095,5.48895227 C794.075368,13.2042745 825.708798,9.53500355 846.634147,22.1526328 C868.00192,35.0374084 873.241899,61.2822716 877.196077,78.4955101 C881.509727,97.281789 880.707831,113.123214 877.507158,137.343317 C868.264611,207.337714 852.53085,245.201704 855.607091,246.385475 C859.478315,247.873861 894.893101,192.179073 897.15362,133.273674 C897.298791,129.417053 896.994623,115.680185 899.027016,115.431774 C901.460356,115.134097 905.635748,134.378341 906.458383,138.156552 C917.498284,188.9414 899.593873,245.713099 895.280224,258.794244 C886.328018,285.958507 867.248414,343.677361 845.078744,342.683021 C834.301533,342.199383 826.870166,327.630545 824.492128,322.962772 C791.939282,259.12384 862.886374,152.267425 855.773,78.2047718 C854.943452,69.5270291 853.464092,65.7411852 852.143728,63.1439686 C848.143903,55.2824005 841.370067,50.0234085 833.382643,46.1297772 C836.636116,57.6332135 839.497937,71.201284 840.937917,86.4981013 C842.382713,101.836459 843.868987,134.47826 828.384091,185.758543 C821.485016,208.62418 786.132446,325.707092 739.981926,324.214542 C735.015145,324.054054 730.405526,322.536369 726.232493,320.258734 C726.531274,324.210393 726.477068,328.111271 725.997129,331.922232 C722.990018,355.810657 701.483986,371.479999 658.590824,401.843077 C631.372663,421.110219 555.087429,475.110536 530.232788,454.310599 C522.971478,448.233543 516.592254,432.837593 521.378746,425.632277 C523.864625,421.890842 528.812187,421.184465 530.328878,420.932584 C536.013521,419.989198 543.192923,417.178734 551.384334,412.931167 C556.526695,409.902567 563.917276,405.238263 572.224508,398.793447 C583.144816,390.321788 602.384108,373.545004 634.267094,320.145593 C648.79412,295.814569 661.278907,274.904326 671.695884,252.107171 C666.04384,244.050513 660.511758,234.447687 657.44743,221.545037 C655.632103,213.901185 655.227698,207.394613 655.160643,203.181335 C648.142667,220.778293 639.899725,242.140972 631.044991,266.6192 C614.377298,312.69256 607.593669,336.483147 594.45432,337.569773 C586.566702,338.22272 579.949674,330.397764 577.156862,327.007435 C567.683977,315.507466 564.044084,300.1731 564.099466,283.287118 Z M630.087279,355.802825 C646.275461,341.647973 661.732467,326.779524 674.495333,312.945828 C686.008077,300.46767 689.565455,295.076867 690.070788,287.863225 C690.688468,279.060398 686.447481,272.032642 680.719537,264.261497 C670.151724,288.679698 654.189825,318.831766 630.087279,355.802825 Z M170.817611,368.007561 C201.844096,348.605142 239.177497,317.88237 276.162975,269.540462 C278.692406,266.234787 282.632759,260.875903 280.944628,258.272441 C276.243684,251.022967 231.956807,271.400383 189.768211,292.875902 C189.033981,295.594056 188.314984,298.307811 187.612874,301.01584 C180.848613,327.105181 175.95397,351.498678 170.817611,368.007561 Z M243.925928,116.574594 C235.471109,149.539739 222.163912,188.08364 209.310569,227.958651 C252.594697,194.246571 312.710682,134.781383 299.7014,115.450509 C293.150894,105.716461 270.068052,109.143595 243.925928,116.574594 Z M165.047346,230.012534 C171.005066,215.343338 177.996965,198.863745 186.143192,180.226881 C186.143192,180.226881 196.272795,157.052672 207.581005,128.352553 C201.907385,130.345166 196.378742,132.329944 191.132923,134.213196 C139.559233,152.727471 100.607115,176.417445 75.5416313,193.790277 C115.288041,186.760515 151.249638,201.814379 164.457425,228.7677 C164.660622,229.18238 164.857206,229.597369 165.047346,230.012534 Z" id="path-1"></path>
    </defs>
    <g id="Artboard" stroke="none" stroke-width="1" fill="none" fill-rule="evenodd">
        <mask id="mask-2" fill="white">
            <use xlink:href="#path-1"></use>
        </mask>
        <use id="Mask" fill="#F5F5F5" xlink:href="#path-1"></use>
    </g>
</svg>