<?xml version="1.0" encoding="UTF-8"?>
<svg width="190px" height="54px" viewBox="0 0 190 54" version="1.1" xmlns="http://www.w3.org/2000/svg" xmlns:xlink="http://www.w3.org/1999/xlink">
    <!-- Generator: Sketch 53.1 (72631) - https://sketchapp.com -->
    <title>Artboard</title>
    <desc>Created with Sketch.</desc>
    <g id="Artboard" stroke="none" stroke-width="1" fill="none" fill-rule="evenodd">
        <path d="M16.82,22.156 C19.2840123,22.156 21.4399908,22.4786634 23.288,23.124 C25.1360092,23.7693366 26.5586617,24.6786608 27.556,25.852 C28.5533383,27.0253392 29.052,28.3893256 29.052,29.944 C29.052,31.469341 28.5826714,32.8333273 27.644,34.036 C26.7053286,35.2386727 25.4440079,36.0746643 23.86,36.544 C25.7080092,36.9546687 27.1893278,37.8713262 28.304,39.294 C29.4186722,40.7166738 29.976,42.3959903 29.976,44.332 C29.976,46.0626753 29.4626718,47.5879934 28.436,48.908 C27.4093282,50.2280066 25.964676,51.2399965 24.102,51.944 C22.239324,52.6480035 20.0613458,53 17.568,53 L1.2,53 L1.2,22.156 L16.82,22.156 Z M16.248,34.036 C16.9520035,34.036 17.5166645,33.8306687 17.942,33.42 C18.3673355,33.0093313 18.58,32.46667 18.58,31.792 C18.58,31.1466634 18.3673355,30.626002 17.942,30.23 C17.5166645,29.833998 16.9520035,29.636 16.248,29.636 L11.364,29.636 L11.364,34.036 L16.248,34.036 Z M16.248,45.52 C17.1866714,45.52 17.9419971,45.2926689 18.514,44.838 C19.0860029,44.3833311 19.372,43.789337 19.372,43.056 C19.372,42.38133 19.0860029,41.8386687 18.514,41.428 C17.9419971,41.0173313 17.1866714,40.812 16.248,40.812 L11.364,40.812 L11.364,45.52 L16.248,45.52 Z M42.824,40.196 C42.824,41.662674 43.2639956,42.8653286 44.144,43.804 C45.0240044,44.7426714 46.0799938,45.212 47.312,45.212 C48.5146727,45.212 49.511996,44.7500046 50.304,43.826 C51.096004,42.9019954 51.492,41.6920075 51.492,40.196 L51.492,22.156 L61.7,22.156 L61.7,40.196 C61.7,42.8946802 61.1060059,45.2633231 59.918,47.302 C58.7299941,49.3406769 57.0506775,50.9173278 54.88,52.032 C52.7093225,53.1466722 50.1720145,53.704 47.268,53.704 C44.3639855,53.704 41.8046777,53.1466722 39.59,52.032 C37.3753223,50.9173278 35.6593394,49.3406769 34.442,47.302 C33.2246606,45.2633231 32.616,42.8946802 32.616,40.196 L32.616,22.156 L42.824,22.156 L42.824,40.196 Z M83.392,53 L79.696,44.992 L75.868,44.992 L75.868,53 L65.66,53 L65.66,22.156 L80.576,22.156 C84.7706876,22.156 88.0119886,23.1166571 90.3,25.038 C92.5880114,26.9593429 93.732,29.6799824 93.732,33.2 C93.732,35.4293445 93.3140042,37.3726584 92.478,39.03 C91.6419958,40.6873416 90.4320079,41.9999952 88.848,42.968 L94.92,53 L83.392,53 Z M75.868,37.248 L80.576,37.248 C81.6906722,37.248 82.5486637,36.9180033 83.15,36.258 C83.7513363,35.5979967 84.052,34.6813392 84.052,33.508 C84.052,32.3639943 83.7513363,31.4766698 83.15,30.846 C82.5486637,30.2153302 81.6906722,29.9 80.576,29.9 L75.868,29.9 L75.868,37.248 Z M117.492,36.764 L126.248,36.764 L126.248,49.656 C124.517325,50.8293392 122.383346,51.7973295 119.846,52.56 C117.308654,53.3226705 114.940011,53.704 112.74,53.704 C109.542651,53.704 106.675346,53.0073403 104.138,51.614 C101.600654,50.2206597 99.6133405,48.2993456 98.176,45.85 C96.7386595,43.4006544 96.02,40.6360154 96.02,37.556 C96.02,34.5053181 96.7679925,31.7553456 98.264,29.306 C99.7600075,26.8566544 101.827987,24.9426736 104.468,23.564 C107.108013,22.1853264 110.085317,21.496 113.4,21.496 C115.805345,21.496 118.217988,21.9359956 120.638,22.816 C123.058012,23.6960044 125.089325,24.869326 126.732,26.336 L120.968,33.332 C119.941328,32.3053282 118.73134,31.4913363 117.338,30.89 C115.94466,30.2886637 114.61734,29.988 113.356,29.988 C112.065327,29.988 110.892005,30.3179967 109.836,30.978 C108.779995,31.6380033 107.95867,32.5399943 107.372,33.684 C106.78533,34.8280057 106.492,36.1186595 106.492,37.556 C106.492,39.022674 106.792664,40.3353275 107.394,41.494 C107.995336,42.6526725 108.823995,43.5619967 109.88,44.222 C110.936005,44.8820033 112.123993,45.212 113.444,45.212 C114.558672,45.212 115.907992,44.8600035 117.492,44.156 L117.492,36.764 Z M130.032,22.156 L156.124,22.156 L156.124,29.9 L140.24,29.9 L140.24,33.684 L154.672,33.684 L154.672,41.428 L140.24,41.428 L140.24,45.256 L156.52,45.256 L156.52,53 L130.032,53 L130.032,22.156 Z M178.124,53 L174.428,44.992 L170.6,44.992 L170.6,53 L160.392,53 L160.392,22.156 L175.308,22.156 C179.502688,22.156 182.743989,23.1166571 185.032,25.038 C187.320011,26.9593429 188.464,29.6799824 188.464,33.2 C188.464,35.4293445 188.046004,37.3726584 187.21,39.03 C186.373996,40.6873416 185.164008,41.9999952 183.58,42.968 L189.652,53 L178.124,53 Z M170.6,37.248 L175.308,37.248 C176.422672,37.248 177.280664,36.9180033 177.882,36.258 C178.483336,35.5979967 178.784,34.6813392 178.784,33.508 C178.784,32.3639943 178.483336,31.4766698 177.882,30.846 C177.280664,30.2153302 176.422672,29.9 175.308,29.9 L170.6,29.9 L170.6,37.248 Z M6.681,8.14 C6.681,9.06733797 6.4210026,9.78883075 5.901,10.3045 C5.3809974,10.8201692 4.67033784,11.078 3.769,11.078 C2.6423277,11.078 1.70633706,10.6230045 0.961,9.713 L1.78,8.413 C2.08333485,8.73366827 2.40616495,8.98283244 2.7485,9.1605 C3.09083504,9.33816755 3.41366515,9.427 3.717,9.427 C4.09833524,9.427 4.3951656,9.31216781 4.6075,9.0825 C4.81983439,8.85283218 4.926,8.52566879 4.926,8.101 L4.926,3.447 L1.793,3.447 L1.793,1.9 L6.681,1.9 L6.681,8.14 Z M13.608,7.256 C13.608,7.97533693 13.8116646,8.53866463 14.219,8.946 C14.6263353,9.35333537 15.1723299,9.557 15.857,9.557 C16.54167,9.557 17.0811646,9.35333537 17.4755,8.946 C17.8698353,8.53866463 18.067,7.97533693 18.067,7.256 L18.067,1.9 L19.809,1.9 L19.809,7.256 C19.809,8.04467061 19.6486682,8.73149707 19.328,9.3165 C19.0073317,9.90150292 18.5501696,10.3499984 17.9565,10.662 C17.3628303,10.9740016 16.663004,11.13 15.857,11.13 C15.0423292,11.13 14.3338363,10.9740016 13.7315,10.662 C13.1291636,10.3499984 12.6676682,9.90150292 12.347,9.3165 C12.0263317,8.73149707 11.866,8.04467061 11.866,7.256 L11.866,1.9 L13.608,1.9 L13.608,7.256 Z M28.8939999,1.9 C30.0380056,1.9 30.9241634,2.17299727 31.5524999,2.719 C32.1808364,3.26500273 32.4949999,4.03632835 32.4949999,5.033 C32.4949999,6.0730052 32.1808364,6.88116378 31.5524999,7.4575 C30.9241634,8.03383621 30.0380056,8.322 28.8939999,8.322 L26.9049999,8.322 L26.9049999,11 L25.1629999,11 L25.1629999,1.9 L28.8939999,1.9 Z M28.8029999,6.788 C29.4616699,6.788 29.9664981,6.64500143 30.3174999,6.359 C30.6685017,6.07299857 30.8439999,5.64833615 30.8439999,5.085 C30.8439999,4.53033056 30.6685017,4.11433472 30.3174999,3.837 C29.9664981,3.55966528 29.4616699,3.421 28.8029999,3.421 L26.9049999,3.421 L26.9049999,6.788 L28.8029999,6.788 Z M37.2379999,1.9 L38.9799999,1.9 L38.9799999,11 L37.2379999,11 L37.2379999,1.9 Z M43.5019998,1.9 L50.9249998,1.9 L50.9249998,3.447 L48.0909998,3.447 L48.0909998,11 L46.3359998,11 L46.3359998,3.447 L43.5019998,3.447 L43.5019998,1.9 Z M55.4599998,1.9 L62.1289998,1.9 L62.1289998,3.421 L57.2019998,3.421 L57.2019998,5.67 L61.6219998,5.67 L61.6219998,7.191 L57.2019998,7.191 L57.2019998,9.479 L62.2849998,9.479 L62.2849998,11 L55.4599998,11 L55.4599998,1.9 Z M73.0469997,11 L71.4739997,8.309 C71.404666,8.31766671 71.2963338,8.322 71.1489997,8.322 L69.0949997,8.322 L69.0949997,11 L67.3529997,11 L67.3529997,1.9 L71.1489997,1.9 C72.3276723,1.9 73.2376632,2.17299727 73.8789997,2.719 C74.5203363,3.26500273 74.8409997,4.03632835 74.8409997,5.033 C74.8409997,5.74367022 74.6871679,6.35033082 74.3794997,6.853 C74.0718315,7.35566918 73.623336,7.73266541 73.0339997,7.984 L75.0359997,11 L73.0469997,11 Z M69.0949997,6.788 L71.1489997,6.788 C71.8076697,6.788 72.3103313,6.64500143 72.6569997,6.359 C73.0036681,6.07299857 73.1769997,5.64833615 73.1769997,5.085 C73.1769997,4.53033056 73.0036681,4.11433472 72.6569997,3.837 C72.3103313,3.55966528 71.8076697,3.421 71.1489997,3.421 L69.0949997,3.421 L69.0949997,6.788 Z M79.3109997,1.9 L81.3519997,1.9 L83.4449997,4.89 L85.5379997,1.9 L87.6049997,1.9 L84.5499997,6.255 L87.8649997,11 L85.7719997,11 L83.4449997,7.75 L81.1439997,11 L79.1029997,11 L82.3789997,6.333 L79.3109997,1.9 Z M97.9749996,1.9 L105.398,1.9 L105.398,3.447 L102.564,3.447 L102.564,11 L100.809,11 L100.809,3.447 L97.9749996,3.447 L97.9749996,1.9 Z M109.933,1.9 L116.602,1.9 L116.602,3.421 L111.675,3.421 L111.675,5.67 L116.095,5.67 L116.095,7.191 L111.675,7.191 L111.675,9.479 L116.758,9.479 L116.758,11 L109.933,11 L109.933,1.9 Z M121.825999,1.9 L123.814999,1.9 L126.830999,7.763 L129.820999,1.9 L131.809999,1.9 L131.809999,11 L130.210999,11 L130.210999,4.474 L127.376999,10.064 L126.258999,10.064 L123.411999,4.474 L123.411999,11 L121.825999,11 L121.825999,1.9 Z M141.076999,1.9 C142.221005,1.9 143.107163,2.17299727 143.735499,2.719 C144.363836,3.26500273 144.677999,4.03632835 144.677999,5.033 C144.677999,6.0730052 144.363836,6.88116378 143.735499,7.4575 C143.107163,8.03383621 142.221005,8.322 141.076999,8.322 L139.087999,8.322 L139.087999,11 L137.345999,11 L137.345999,1.9 L141.076999,1.9 Z M140.985999,6.788 C141.644669,6.788 142.149498,6.64500143 142.500499,6.359 C142.851501,6.07299857 143.026999,5.64833615 143.026999,5.085 C143.026999,4.53033056 142.851501,4.11433472 142.500499,3.837 C142.149498,3.55966528 141.644669,3.421 140.985999,3.421 L139.087999,3.421 L139.087999,6.788 L140.985999,6.788 Z M149.420999,1.9 L151.162999,1.9 L151.162999,9.427 L155.088999,9.427 L155.088999,11 L149.420999,11 L149.420999,1.9 Z M166.552999,11 L165.746999,9.076 L161.300999,9.076 L160.494999,11 L158.687999,11 L162.678999,1.9 L164.485999,1.9 L168.424999,11 L166.552999,11 Z M161.924999,7.581 L165.122999,7.581 L163.536999,3.759 L161.924999,7.581 Z M170.892999,1.9 L178.315999,1.9 L178.315999,3.447 L175.481999,3.447 L175.481999,11 L173.726999,11 L173.726999,3.447 L170.892999,3.447 L170.892999,1.9 Z M182.850999,1.9 L189.519999,1.9 L189.519999,3.421 L184.592999,3.421 L184.592999,5.67 L189.012999,5.67 L189.012999,7.191 L184.592999,7.191 L184.592999,9.479 L189.675999,9.479 L189.675999,11 L182.850999,11 L182.850999,1.9 Z" id="Combined-Shape" fill="#FFFFFF" fill-rule="nonzero"></path>
    </g>
</svg>