<svg xmlns="http://www.w3.org/2000/svg" width="57.467" height="58.458" viewBox="0 0 57.467 58.458">
  <g id="cart" transform="translate(0.045 0.026)">
    <g id="Ñëîé_1" data-name="Ñëîé 1" transform="translate(-0.045 -0.026)">
      <path id="Pfad_16" data-name="Pfad 16" d="M0,1.52a1.568,1.568,0,0,0,0,.723C.185,3.182.936,3.52,1.875,3.7c1.878.347,3.606.714,5.4,1.164.291.075.469.169.526.535.648,3.991.958,6.31,1.587,10.273s1.258,7.935,1.878,11.9c.516,3.24,1.033,6.488,1.54,9.728a1.878,1.878,0,0,0,2.075,1.784H47.529a8.45,8.45,0,0,1-.263.939c-.357,1.117-.413,1.23-.526,1.643-.075.263-.178.385-.46.366s-.376,0-.573,0H11.34a2.094,2.094,0,0,0-1.831.714,1.822,1.822,0,0,0-.263,1.878,1.718,1.718,0,0,0,1.446,1.089,4.555,4.555,0,0,0,.62,0H47.6a2.16,2.16,0,0,0,2.451-1.972c.657-2.62,1.305-4.423,1.953-7.042q1.268-5.1,2.545-10.2l2.732-10.9c0-.094.085-.169.1-.263a2.178,2.178,0,0,0,0-.854c-.207-1.042-1.146-1.427-2.2-1.531-1.624-.15-2.817-.329-4.451-.46l-10.676-.939c-3.6-.31-6.366-.62-9.953-.939-4.526-.282-8.676-.714-13.2-1.1-1.878-.16-2.817-.31-4.695-.469C12.2,8.8,12,7.736,11.96,7.52c-.282-1.756-.432-2.563-.723-4.31A1.765,1.765,0,0,0,9.866,1.679C8.655,1.351,7.415,1.05,6.185.74A33.7,33.7,0,0,0,2.166,0,2.272,2.272,0,0,0,1.5,0,1.878,1.878,0,0,0,0,1.52ZM45.069,35.361c.939-6.554,2.2-12.827,2.911-19.4,1.953.169,3.315.254,5.24.488,0,.16,0,.235-.066.31L50.59,26.985q-1,4-2.028,8.019c0,.131-.178.338-.272.338C47.107,35.37,46.327,35.361,45.069,35.361Zm-7.249,0c.319-6.93.939-13.249,1.042-20.179,1.981.169,3.333.329,5.277.5v.573c-.244,2.319-.667,4.282-1,6.573s-.667,4.751-1.014,7.118q-.347,2.517-.732,5.042c0,.131-.178.347-.272.347-1.268.038-2.056.028-3.333.028ZM29.7,14.487c.1-.056.131-.085.16-.085,1.793.15,3.193.291,5,.46.094,0,.113.244.113.385a16.017,16.017,0,0,1-.075,1.878l-.7,15.653c0,.845-.085,1.7-.122,2.573H30.571C30.252,28.056,30.261,21.67,29.7,14.487Zm-9.165-.873H20.8c1.728.15,3.042.31,4.761.441.385,0,.4.235.432.535.263,3.512.235,6.038.385,9.559l.451,10.808v.423H23.378c-.958-7.7-1.615-14.16-2.845-21.766Zm-7.672-.667h.563c1.089.094,1.765.2,2.864.282.31,0,.423.131.479.451.5,3.146.77,4.986,1.174,8.15q.723,5.747,1.418,11.484c.085.667.178,1.343.272,2.085H16.5c-.085,0-.216-.207-.235-.329-.394-2.817-.939-5.718-1.3-8.582-.441-3.333-1.146-6.676-1.587-10.01-.244-1.69-.244-1.85-.526-3.531Zm25.86,40.189a5.3,5.3,0,1,1,5.3,5.3,5.3,5.3,0,0,1-5.3-5.3Zm3.4,0A1.878,1.878,0,1,0,44,51.258a1.878,1.878,0,0,0-1.878,1.878Zm-29.184,0a5.3,5.3,0,1,1,5.287,5.3,5.3,5.3,0,0,1-5.287-5.3Zm3.39,0A1.878,1.878,0,1,0,18.2,51.258a1.878,1.878,0,0,0-1.878,1.878Z" transform="translate(0.045 0.026)" fill="#404e5c"/>
    </g>
  </g>
</svg>
