<svg xmlns="http://www.w3.org/2000/svg" width="91.577" height="42.097" viewBox="0 0 91.577 42.097">
  <g id="delivery" transform="translate(0.007)">
    <g id="Ñëîé_1" data-name="Ñëîé 1">
      <path id="Pfad_20" data-name="Pfad 20" d="M90.68,19.2a16.06,16.06,0,0,0-2.62-4.54l-.17-.2a11.15,11.15,0,0,0-1.63-1.55l-11.91-9A22.13,22.13,0,0,0,62.88,0H19.68A1.72,1.72,0,0,0,18,1.78a1.71,1.71,0,0,0,1.64,1.77h41L63,13.27a5.69,5.69,0,0,0,5.28,4.19H85.74c.17.23.32.46.48.7a5,5,0,0,0,1,9.8H88v.81a4.1,4.1,0,0,1-2.31,3.63,8.8,8.8,0,0,0-17.55.39H42.87a8.8,8.8,0,0,0-17.58,0,4,4,0,0,1-3.87-4v-.31H24a1.79,1.79,0,0,0,0-3.56H11.71a1.79,1.79,0,0,0,0,3.56h6.16v.31a7.58,7.58,0,0,0,7.57,7.57h.38a8.81,8.81,0,0,0,16.51,0H68.69a8.81,8.81,0,0,0,16.55-.1,7.57,7.57,0,0,0,6.33-7.47V23.61A12.77,12.77,0,0,0,90.68,19.2Zm-3.43,2.41h.48a8,8,0,0,1,.29,2v.79h-.77a1.4,1.4,0,1,1,0-2.79ZM72.2,6.69l9.5,7.22H68.26a2.09,2.09,0,0,1-1.82-1.44l-2-8.8A18.91,18.91,0,0,1,72.2,6.69Zm10,26.59a5.55,5.55,0,0,1-.1,1,5.25,5.25,0,0,1-10.31,0,4.75,4.75,0,0,1-.1-1,5.26,5.26,0,0,1,10.51,0Zm-42.87,0a5.73,5.73,0,0,1-.1,1,5.25,5.25,0,0,1-10.31-.06,5.5,5.5,0,0,1-.1-1,5.26,5.26,0,0,1,10.51,0ZM6.62,6.56A1.7,1.7,0,0,1,8.25,4.79H28.83a1.71,1.71,0,0,1,1.64,1.77,1.72,1.72,0,0,1-1.64,1.78H8.25A1.71,1.71,0,0,1,6.62,6.56Zm9,4.46h15a1.71,1.71,0,0,1,1.64,1.78,1.7,1.7,0,0,1-1.64,1.77h-15A1.7,1.7,0,0,1,14,12.8,1.71,1.71,0,0,1,15.64,11ZM25,21.15H1.64a1.78,1.78,0,0,1,0-3.55H25a1.78,1.78,0,0,1,0,3.55Z" fill="#404e5c"/>
    </g>
  </g>
</svg>
