<svg xmlns="http://www.w3.org/2000/svg" width="123.212" height="40.984" viewBox="0 0 123.212 40.984">
  <g id="logo" transform="translate(0 0.016)">
    <g id="Layer_1" data-name="Layer 1" transform="translate(0 -0.016)">
      <path id="Pfad_13" data-name="Pfad 13" d="M4.836,29.905A14.2,14.2,0,0,1,0,27.555l2.418-6.2a14.637,14.637,0,0,0,4.033,2.118,13.578,13.578,0,0,0,4.516.8q4.221,0,4.217-2.418a2,2,0,0,0-1.2-1.881,19.908,19.908,0,0,0-3.868-1.291,33.931,33.931,0,0,1-4.889-1.543A8.3,8.3,0,0,1,1.842,14.5a7.848,7.848,0,0,1-1.4-4.9,9.381,9.381,0,0,1,1.3-4.889A8.951,8.951,0,0,1,5.609,1.26,14.154,14.154,0,0,1,11.92-.007,19.492,19.492,0,0,1,16.953.65a14.246,14.246,0,0,1,4.352,1.934L19.062,8.793a13.713,13.713,0,0,0-7.181-2.287,5.384,5.384,0,0,0-3.177.74,2.3,2.3,0,0,0-1,1.934,1.9,1.9,0,0,0,1.185,1.775A19.376,19.376,0,0,0,12.7,12.183a32.123,32.123,0,0,1,4.9,1.538,8.511,8.511,0,0,1,3.385,2.626,7.538,7.538,0,0,1,1.451,4.884,9.187,9.187,0,0,1-1.3,4.836,9.071,9.071,0,0,1-3.868,3.448A13.989,13.989,0,0,1,10.986,30.8a21.2,21.2,0,0,1-6.151-.9Z" transform="translate(0 0.015)" fill="#d72d3e"/>
      <path id="Pfad_14" data-name="Pfad 14" d="M64.415,40.667c-2.186-1.451-10.783-12.916-12.026-15.45a19.12,19.12,0,0,1-1.871-8.559A19.12,19.12,0,0,1,52.389,8.1a14.666,14.666,0,0,1,5.131-5.948,13.743,13.743,0,0,1,14.768,0A14.739,14.739,0,0,1,77.432,8.1,19.183,19.183,0,0,1,79.3,16.658a19.183,19.183,0,0,1-1.867,8.559C76.2,27.751,67.379,39.1,65.256,40.667c-.155.116-.3.208-.426.309m3.636-16.315a7.7,7.7,0,0,0,2.519-3.225,11.721,11.721,0,0,0,.924-4.782,11.721,11.721,0,0,0-.924-4.782,7.7,7.7,0,0,0-2.519-3.225,6.078,6.078,0,0,0-7.1,0,7.7,7.7,0,0,0-2.519,3.225,11.722,11.722,0,0,0-.924,4.782,11.722,11.722,0,0,0,.924,4.782,7.7,7.7,0,0,0,2.543,3.225,6.078,6.078,0,0,0,7.1,0Z" transform="translate(-26.088 0.008)" fill="#d72d3e"/>
      <path id="Pfad_15" data-name="Pfad 15" d="M119.066,29.9a14.2,14.2,0,0,1-4.836-2.369l2.418-6.18a14.777,14.777,0,0,0,4.033,2.118,13.578,13.578,0,0,0,4.516.8q4.221,0,4.221-2.418a2,2,0,0,0-1.2-1.881,19.908,19.908,0,0,0-3.868-1.291,33.65,33.65,0,0,1-4.884-1.543,8.283,8.283,0,0,1-3.385-2.645A7.83,7.83,0,0,1,114.67,9.59a9.381,9.381,0,0,1,1.3-4.889,8.979,8.979,0,0,1,3.868-3.448,14.183,14.183,0,0,1,6.339-1.262,19.492,19.492,0,0,1,5.034.658,14.245,14.245,0,0,1,4.352,1.934l-2.244,6.209a13.713,13.713,0,0,0-7.181-2.287,5.408,5.408,0,0,0-3.182.74,2.3,2.3,0,0,0-1,1.934,1.9,1.9,0,0,0,1.185,1.775,19.487,19.487,0,0,0,3.815,1.228,32.123,32.123,0,0,1,4.9,1.543,8.559,8.559,0,0,1,3.385,2.626,7.645,7.645,0,0,1,1.422,4.884,9.188,9.188,0,0,1-1.3,4.836,9.057,9.057,0,0,1-3.868,3.448,14.023,14.023,0,0,1-6.286,1.291,21.228,21.228,0,0,1-6.146-.9Z" transform="translate(-58.994 0.016)" fill="#d72d3e"/>
      <text id="_.shop" data-name=".shop" transform="translate(80.212 23.349)" fill="#d72d3e" font-size="15" font-family="Montserrat-Bold, Montserrat" font-weight="700" letter-spacing="0.07em"><tspan x="0" y="0">.</tspan><tspan y="0" letter-spacing="-0.02em">shop</tspan></text>
      <circle id="Ellipse_2" data-name="Ellipse 2" cx="3.385" cy="3.385" r="3.385" transform="translate(35.585 13.422)" fill="#d72d3e"/>
    </g>
  </g>
</svg>
