<svg id="marker_red" xmlns="http://www.w3.org/2000/svg" width="25.4" height="36.762" viewBox="0 0 25.4 36.762">
  <g id="Ñëîé_1" data-name="Ñëîé 1" transform="translate(0 0)">
    <path id="Pfad_21" data-name="Pfad 21" d="M12.7,0A12.7,12.7,0,0,0,0,12.7c0,9.128,12.7,20.474,12.7,20.474S25.4,22,25.4,12.7A12.7,12.7,0,0,0,12.7,0Zm0,21.277a9.083,9.083,0,1,1,6.428-2.66A9.089,9.089,0,0,1,12.7,21.277Z" transform="translate(0 0)" fill="#db2f3d"/>
    <path id="Pfad_22" data-name="Pfad 22" d="M20.917,52.308c1.239.566,2,1.369,2,2.262,0,1.8-3.275,3.258-7.313,3.258s-7.313-1.487-7.313-3.286c0-.865.758-1.651,1.991-2.262-2.189.752-3.608,1.912-3.608,3.235,0,2.194,4,3.959,8.93,3.959s8.925-1.782,8.925-3.959C24.525,54.192,23.106,53.032,20.917,52.308Z" transform="translate(-2.898 -22.712)" fill="#db2f3d"/>
  </g>
</svg>
