<svg xmlns="http://www.w3.org/2000/svg" width="54.54" height="53.349" viewBox="0 0 54.54 53.349">
  <g id="up" transform="translate(0 0.005)">
    <g id="Ñëîé_1" data-name="Ñëîé 1" transform="translate(0 -0.005)">
      <path id="Pfad_17" data-name="Pfad 17" d="M20.38,22.07c2.24-2.2,3.37-5.34,3.37-9.35s-1.12-7.29-3.34-9.45A11.73,11.73,0,0,0,11.92,0C8.21,0,5.33,1.24,3.37,3.69A13.47,13.47,0,0,0,.48,12.38c0,4.29,1.1,7.57,3.26,9.73A11.25,11.25,0,0,0,12,25.41a11.59,11.59,0,0,0,8.38-3.34ZM8.78,18.74c-.95-1.08-1.43-3-1.43-5.8,0-3.07.48-5.17,1.41-6.26A4.17,4.17,0,0,1,12.1,5.11a4.26,4.26,0,0,1,3.36,1.56c.94,1.07,1.42,3,1.42,5.83,0,3.05-.47,5.14-1.41,6.23a4.23,4.23,0,0,1-3.37,1.56A4.19,4.19,0,0,1,8.78,18.74Z" transform="translate(0 0.005)" fill="#404e5c"/>
      <path id="Pfad_18" data-name="Pfad 18" d="M51.2,31.2a11.71,11.71,0,0,0-8.48-3.27c-3.72,0-6.61,1.24-8.58,3.67a13.54,13.54,0,0,0-2.88,8.71c0,4.27,1.1,7.54,3.26,9.72a11.22,11.22,0,0,0,8.24,3.31A11.6,11.6,0,0,0,51.17,50c2.23-2.2,3.37-5.34,3.37-9.35S53.41,33.36,51.2,31.2ZM46.27,46.66a4.28,4.28,0,0,1-3.41,1.56,4.19,4.19,0,0,1-3.31-1.56c-.95-1.09-1.43-3-1.43-5.79,0-3.07.48-5.17,1.41-6.26a4.39,4.39,0,0,1,6.72,0c.94,1.07,1.42,3,1.42,5.83C47.67,43.48,47.2,45.57,46.27,46.66Z" transform="translate(0 0.005)" fill="#404e5c"/>
      <path id="Pfad_19" data-name="Pfad 19" d="M51.01.39,30.07,7.57l5.5,4.67L0,51.11l9.82.03L41.15,16.99l5.08,4.32Z" transform="translate(0 0.005)" fill="#404e5c"/>
    </g>
  </g>
</svg>
